<mxfile host="app.diagrams.net" agent="Mozilla/5.0 (Windows NT 10.0; Win64; x64; rv:128.0) Gecko/20100101 Firefox/128.0" version="26.0.16">
  <diagram name="Page-1" id="ctC_YD43IhsMbheUWCj9">
    <mxGraphModel dx="1434" dy="746" grid="1" gridSize="10" guides="1" tooltips="1" connect="1" arrows="1" fold="1" page="1" pageScale="1" pageWidth="850" pageHeight="1100" math="0" shadow="0">
      <root>
        <mxCell id="0" />
        <mxCell id="1" parent="0" />
        <mxCell id="JlTV9KY6p3qoHs3ZNoCp-23" value="" style="group" vertex="1" connectable="0" parent="1">
          <mxGeometry x="65" y="100" width="545" height="230" as="geometry" />
        </mxCell>
        <mxCell id="JlTV9KY6p3qoHs3ZNoCp-20" value="Servo" style="sketch=0;outlineConnect=0;fontColor=#232F3E;gradientColor=none;strokeColor=#232F3E;fillColor=#ffffff;dashed=0;verticalLabelPosition=bottom;verticalAlign=top;align=center;html=1;fontSize=12;fontStyle=0;aspect=fixed;shape=mxgraph.aws4.resourceIcon;resIcon=mxgraph.aws4.servo;" vertex="1" parent="JlTV9KY6p3qoHs3ZNoCp-23">
          <mxGeometry x="485" y="60" width="60" height="60" as="geometry" />
        </mxCell>
        <mxCell id="JlTV9KY6p3qoHs3ZNoCp-17" value="" style="shape=image;html=1;verticalAlign=top;verticalLabelPosition=bottom;labelBackgroundColor=#ffffff;imageAspect=0;aspect=fixed;image=https://cdn1.iconfinder.com/data/icons/computer-hardware-glyphs-vol-1/52/computercable__cable__data__wire__datacable__usb__transfer-128.png;imageBackground=default;" vertex="1" parent="JlTV9KY6p3qoHs3ZNoCp-23">
          <mxGeometry x="335" y="128" width="78" height="78" as="geometry" />
        </mxCell>
        <mxCell id="JlTV9KY6p3qoHs3ZNoCp-10" value="" style="shape=image;html=1;verticalAlign=top;verticalLabelPosition=bottom;labelBackgroundColor=#ffffff;imageAspect=0;aspect=fixed;image=https://cdn1.iconfinder.com/data/icons/computer-hardware-glyphs-vol-1/52/computercable__cable__data__wire__datacable__usb__transfer-128.png" vertex="1" parent="JlTV9KY6p3qoHs3ZNoCp-23">
          <mxGeometry x="195" y="140" width="78" height="78" as="geometry" />
        </mxCell>
        <mxCell id="JlTV9KY6p3qoHs3ZNoCp-1" value="" style="verticalLabelPosition=bottom;html=1;verticalAlign=top;align=center;strokeColor=none;fillColor=#00BEF2;shape=mxgraph.azure.laptop;pointerEvents=1;" vertex="1" parent="JlTV9KY6p3qoHs3ZNoCp-23">
          <mxGeometry y="50" width="80" height="50" as="geometry" />
        </mxCell>
        <mxCell id="JlTV9KY6p3qoHs3ZNoCp-2" value="Your computer" style="text;html=1;align=center;verticalAlign=middle;whiteSpace=wrap;rounded=0;" vertex="1" parent="JlTV9KY6p3qoHs3ZNoCp-23">
          <mxGeometry x="10" y="110" width="60" height="30" as="geometry" />
        </mxCell>
        <mxCell id="JlTV9KY6p3qoHs3ZNoCp-3" value="" style="html=1;outlineConnect=0;fillColor=#CCCCCC;strokeColor=#6881B3;gradientColor=none;gradientDirection=north;strokeWidth=2;shape=mxgraph.networks.comm_link_edge;html=1;rounded=0;" edge="1" parent="JlTV9KY6p3qoHs3ZNoCp-23">
          <mxGeometry width="100" height="100" relative="1" as="geometry">
            <mxPoint x="95" y="80" as="sourcePoint" />
            <mxPoint x="205" y="70" as="targetPoint" />
          </mxGeometry>
        </mxCell>
        <mxCell id="JlTV9KY6p3qoHs3ZNoCp-4" value="SSH" style="text;html=1;align=center;verticalAlign=middle;whiteSpace=wrap;rounded=0;" vertex="1" parent="JlTV9KY6p3qoHs3ZNoCp-23">
          <mxGeometry x="105" y="110" width="60" height="30" as="geometry" />
        </mxCell>
        <mxCell id="JlTV9KY6p3qoHs3ZNoCp-9" value="" style="group" vertex="1" connectable="0" parent="JlTV9KY6p3qoHs3ZNoCp-23">
          <mxGeometry x="205" y="10" width="85" height="145" as="geometry" />
        </mxCell>
        <mxCell id="JlTV9KY6p3qoHs3ZNoCp-7" value="RPi SBC Circuit-Board" style="strokeColor=#dddddd;shadow=1;strokeWidth=1;rounded=1;absoluteArcSize=1;arcSize=2;labelPosition=center;verticalLabelPosition=middle;align=center;verticalAlign=bottom;spacingLeft=0;fontColor=#999999;fontSize=12;whiteSpace=wrap;spacingBottom=2;html=1;container=0;" vertex="1" parent="JlTV9KY6p3qoHs3ZNoCp-9">
          <mxGeometry x="15" width="70" height="145" as="geometry" />
        </mxCell>
        <mxCell id="JlTV9KY6p3qoHs3ZNoCp-8" value="" style="sketch=0;dashed=0;connectable=0;html=1;fillColor=#757575;strokeColor=none;shape=mxgraph.gcp2.circuit_board;part=1;container=0;" vertex="1" parent="JlTV9KY6p3qoHs3ZNoCp-9">
          <mxGeometry x="25" y="50" width="50" height="45" as="geometry">
            <mxPoint x="-25" y="12.5" as="offset" />
          </mxGeometry>
        </mxCell>
        <mxCell id="JlTV9KY6p3qoHs3ZNoCp-5" value="" style="shape=image;html=1;verticalAlign=top;verticalLabelPosition=bottom;labelBackgroundColor=#ffffff;imageAspect=0;aspect=fixed;image=https://cdn1.iconfinder.com/data/icons/fruit-136/64/Fruit_iconfree_Filled_Outline_raspberry-healthy-organic-food-fruit_icon-128.png" vertex="1" parent="JlTV9KY6p3qoHs3ZNoCp-9">
          <mxGeometry x="30" y="10" width="40" height="40" as="geometry" />
        </mxCell>
        <mxCell id="JlTV9KY6p3qoHs3ZNoCp-11" value="Power Supply" style="text;html=1;align=center;verticalAlign=middle;whiteSpace=wrap;rounded=0;" vertex="1" parent="JlTV9KY6p3qoHs3ZNoCp-23">
          <mxGeometry x="165" y="200" width="60" height="30" as="geometry" />
        </mxCell>
        <mxCell id="JlTV9KY6p3qoHs3ZNoCp-15" value="" style="shape=link;html=1;rounded=0;" edge="1" parent="JlTV9KY6p3qoHs3ZNoCp-23">
          <mxGeometry width="100" relative="1" as="geometry">
            <mxPoint x="290" y="89.5" as="sourcePoint" />
            <mxPoint x="355" y="90" as="targetPoint" />
          </mxGeometry>
        </mxCell>
        <mxCell id="JlTV9KY6p3qoHs3ZNoCp-16" value="" style="group" vertex="1" connectable="0" parent="JlTV9KY6p3qoHs3ZNoCp-23">
          <mxGeometry x="347.5" y="40" width="77.5" height="100" as="geometry" />
        </mxCell>
        <mxCell id="JlTV9KY6p3qoHs3ZNoCp-12" value="Circuit Adaptor" style="strokeColor=#dddddd;shadow=1;strokeWidth=1;rounded=1;absoluteArcSize=1;arcSize=2;labelPosition=center;verticalLabelPosition=middle;align=center;verticalAlign=bottom;spacingLeft=0;fontColor=#999999;fontSize=12;whiteSpace=wrap;spacingBottom=2;html=1;container=0;" vertex="1" parent="JlTV9KY6p3qoHs3ZNoCp-16">
          <mxGeometry x="7.5" width="70" height="100" as="geometry" />
        </mxCell>
        <mxCell id="JlTV9KY6p3qoHs3ZNoCp-13" value="" style="sketch=0;dashed=0;connectable=0;html=1;fillColor=#FF9933;strokeColor=#d79b00;shape=mxgraph.gcp2.circuit_board;part=1;" vertex="1" parent="JlTV9KY6p3qoHs3ZNoCp-16">
          <mxGeometry x="25" y="21.25" width="35" height="27.5" as="geometry">
            <mxPoint x="-25" y="12.5" as="offset" />
          </mxGeometry>
        </mxCell>
        <mxCell id="JlTV9KY6p3qoHs3ZNoCp-18" value="&lt;span style=&quot;color: rgb(204, 102, 0);&quot;&gt;Power Supply&lt;/span&gt;" style="text;html=1;align=center;verticalAlign=middle;whiteSpace=wrap;rounded=0;" vertex="1" parent="JlTV9KY6p3qoHs3ZNoCp-23">
          <mxGeometry x="315" y="200" width="60" height="30" as="geometry" />
        </mxCell>
        <mxCell id="JlTV9KY6p3qoHs3ZNoCp-21" value="" style="shape=link;html=1;rounded=0;" edge="1" parent="JlTV9KY6p3qoHs3ZNoCp-23">
          <mxGeometry width="100" relative="1" as="geometry">
            <mxPoint x="425" y="89.5" as="sourcePoint" />
            <mxPoint x="490" y="90" as="targetPoint" />
          </mxGeometry>
        </mxCell>
        <mxCell id="JlTV9KY6p3qoHs3ZNoCp-22" value="Serial communication" style="text;html=1;align=center;verticalAlign=middle;whiteSpace=wrap;rounded=0;" vertex="1" parent="JlTV9KY6p3qoHs3ZNoCp-23">
          <mxGeometry x="325" width="150" height="30" as="geometry" />
        </mxCell>
      </root>
    </mxGraphModel>
  </diagram>
</mxfile>
